<svg xmlns="http://www.w3.org/2000/svg" viewBox="0 0 192 192"><defs><style>.cls-1{fill:#cc0066;}</style></defs><path class="cls-1" d="M96,0A96,96,0,1,0,192,96,96,96,0,0,0,96,0Zm0,176A80,80,0,1,1,176,96,80.09,80.09,0,0,1,96,176Z"/><path class="cls-1" d="M59.44,74.88h8.8v42.24h-8.8Z"/><path class="cls-1" d="M85.84,74.88c9.92,0,17.92,4.96,22.72,12.96l-7.04,5.12c-3.52-5.6-8.8-9.28-15.68-9.28-11.52,0-19.84,8.96-19.84,20.32s8.32,20.32,19.84,20.32c6.88,0,12.16-3.68,15.68-9.28l7.04,5.12c-4.8,8-12.8,12.96-22.72,12.96-15.68,0-28.48-12.16-28.48-29S70.16,74.88,85.84,74.88Z"/><path class="cls-1" d="M122.56,74.88c9.92,0,17.92,4.96,22.72,12.96l-7.04,5.12c-3.52-5.6-8.8-9.28-15.68-9.28-11.52,0-19.84,8.96-19.84,20.32s8.32,20.32,19.84,20.32c6.88,0,12.16-3.68,15.68-9.28l7.04,5.12c-4.8,8-12.8,12.96-22.72,12.96-15.68,0-28.48-12.16-28.48-29S106.88,74.88,122.56,74.88Z"/></svg>