<svg xmlns="http://www.w3.org/2000/svg" viewBox="0 0 48 32"><rect width="48" height="32" rx="4" fill="#003087"/><path d="M18.3 11.5c.2-1.5-.1-2.5-.8-3.3-.8-.9-2.3-1.2-4.2-1.2H8.9c-.4 0-.8.3-.8.7L6 23.4c0 .3.2.5.5.5h3.2l.8-5.1-.1.3c.1-.4.5-.7.9-.7h1.9c3.7 0 6.6-1.5 7.5-5.9 0-.1 0-.3.1-.5-.1 0-.1 0 0-.5zm-1.2 5.8c-.5 2.3-2 3.8-5.1 3.8h-1.3c-.3 0-.6.2-.6.5l-.7 4.4c0 .2.1.4.3.4h2.4c.3 0 .6-.2.6-.6v-.1l.5-2.9v-.2c0-.3.3-.6.6-.6h.4c2.7 0 4.8-1.1 5.4-4.3.3-1.3.1-2.4-.6-3-.2-.2-.5-.4-.9-.4z" fill="#FFF"/><path d="M17.1 11c-.1 0-.2-.1-.3-.1-.1 0-.2 0-.3-.1-.4 0-.8-.1-1.3-.1h-4c-.1 0-.2 0-.3.1-.2.1-.3.2-.4.4l-1 6.2v.2c.1-.4.5-.7.9-.7h1.9c3.7 0 6.6-1.5 7.5-5.9 0-.1 0-.3.1-.5-.2-.1-.4-.2-.6-.3-.4-.1-.8-.2-1.2-.2z" fill="#009CDE"/></svg>