<svg width="256" height="64" viewBox="0 0 256 64" fill="none" xmlns="http://www.w3.org/2000/svg">
  <!-- Bliksemschicht + Wiel icon (mono) -->
  <g id="logo-icon">
    <!-- Wiel cirkel -->
    <circle cx="32" cy="32" r="28" stroke="currentColor" stroke-width="3" fill="none"/>
    <!-- Spaken -->
    <g stroke="currentColor" stroke-width="2" stroke-linecap="round">
      <line x1="32" y1="8" x2="32" y2="20"/>
      <line x1="32" y1="44" x2="32" y2="56"/>
      <line x1="8" y1="32" x2="20" y2="32"/>
      <line x1="44" y1="32" x2="56" y2="32"/>
      <line x1="15.76" y1="15.76" x2="23.52" y2="23.52"/>
      <line x1="40.48" y1="40.48" x2="48.24" y2="48.24"/>
      <line x1="48.24" y1="15.76" x2="40.48" y2="23.52"/>
      <line x1="23.52" y1="40.48" x2="15.76" y2="48.24"/>
    </g>
    <!-- Bliksemschicht in center -->
    <path d="M28 22L34 22L30 32L36 32L32 42L26 42L30 32L24 32L28 22Z" fill="currentColor"/>
  </g>
  
  <!-- VoltMover tekst -->
  <g id="logo-text" fill="currentColor">
    <!-- Volt -->
    <path d="M80 18L86 40H90L96 18H92L88 34L84 18H80Z"/>
    <path d="M104 18C100.686 18 98 20.686 98 24V36C98 39.314 100.686 42 104 42H110C113.314 42 116 39.314 116 36V24C116 20.686 113.314 18 110 18H104ZM104 22H110C111.105 22 112 22.895 112 24V36C112 37.105 111.105 38 110 38H104C102.895 38 102 37.105 102 36V24C102 22.895 102.895 22 104 22Z"/>
    <path d="M120 18V42H124V22H132V18H120Z"/>
    <path d="M136 18V22H144V38H136V42H152V38H148V22H152V18H136Z"/>
    
    <!-- Mover -->
    <path d="M168 18V42H172V32H176L180 42H184L179 31C181.209 29.791 182 27.896 182 26V24C182 20.686 179.314 18 176 18H168ZM172 22H176C177.105 22 178 22.895 178 24V26C178 27.105 177.105 28 176 28H172V22Z"/>
    <path d="M186 18C182.686 18 180 20.686 180 24V36C180 39.314 182.686 42 186 42H192C195.314 42 198 39.314 198 36V24C198 20.686 195.314 18 192 18H186ZM186 22H192C193.105 22 194 22.895 194 24V36C194 37.105 193.105 38 192 38H186C184.895 38 184 37.105 184 36V24C184 22.895 184.895 22 186 22Z"/>
    <path d="M202 18L208 40H212L218 18H214L210 34L206 18H202Z"/>
    <path d="M222 18V42H238V38H226V32H234V28H226V22H238V18H222Z"/>
    <path d="M242 18V42H246V32H250L254 42H258L253 31C255.209 29.791 256 27.896 256 26V24C256 20.686 253.314 18 250 18H242ZM246 22H250C251.105 22 252 22.895 252 24V26C252 27.105 251.105 28 250 28H246V22Z"/>
  </g>
</svg>
