<svg xmlns="http://www.w3.org/2000/svg" viewBox="0 0 256 64" role="img" aria-label="VoltMover logo mono">
  <g fill="none" stroke="none">
    <!-- Icon mono -->
    <g transform="translate(8,8)">
      <circle cx="16" cy="32" r="12" fill="none" stroke="hsl(var(--ink))" stroke-width="2" />
      <path d="M28 0 L12 20 H22 L14 40 L34 18 H24 Z" fill="hsl(var(--ink))"/>
    </g>
    <!-- Wordmark mono -->
    <g transform="translate(64,14)" fill="hsl(var(--ink))">
      <path d="M0 0h10l10 28h-9l-1.8-5H6.8L5 28H-4L0 0Zm9.6 17-2.6-7.6L4.4 17h5.2Z"/>
      <path d="M26 0h9v21c0 5.3-4.2 9-10.5 9-5.8 0-9.5-3-9.5-7.6h8.4c.1 1.4.9 2.2 2.4 2.2 1.6 0 2.2-1 2.2-2.8V0Z"/>
      <path d="M51 0h9v6h6v7h-6v8c0 1.2.6 1.8 1.8 1.8H66v7h-7.7c-5.3 0-7.3-2-7.3-6.8V13h-3V6h3V0Z"/>
      <path d="M82.5-1c8 0 13.5 5.4 13.5 13.8S90.5 28 82.5 28s-13.5-5.4-13.5-15.2S74.5-1 82.5-1Zm0 7.6c-3.2 0-5.3 2.7-5.3 6.6s2.1 6.6 5.3 6.6 5.3-2.7 5.3-6.6-2.1-6.6-5.3-6.6Z"/>
      <path d="M109 0h9v28h-9V0Z"/>
      <path d="M123 0h8.6l5.2 15.6L142 0h8.4l-8.6 28h-8L123 0Z"/>
      <path d="M171.5-1c8 0 13.5 5.4 13.5 13.8S179.5 28 171.5 28s-13.5-5.4-13.5-15.2S163.5-1 171.5-1Zm0 7.6c-3.2 0-5.3 2.7-5.3 6.6s2.1 6.6 5.3 6.6 5.3-2.7 5.3-6.6-2.1-6.6-5.3-6.6Z"/>
    </g>
  </g>
</svg>


